<?xml version="1.0" encoding="UTF-8"?>
<svg width="24px" height="24px" viewBox="0 0 24 24" version="1.1" xmlns="http://www.w3.org/2000/svg" xmlns:xlink="http://www.w3.org/1999/xlink">
    <!-- Generator: Sketch 49.2 (51160) - http://www.bohemiancoding.com/sketch -->
    <title>©</title>
    <desc>Created with Sketch.</desc>
    <defs></defs>
    <g id="Page-1" stroke="none" stroke-width="1" fill="none" fill-rule="evenodd">
        <path d="M11.9668508,24 C5.23756906,24 0,18.5966851 0,12 C0,5.46961326 5.3038674,0 12.0331492,0 C18.7624309,0 24,5.40331492 24,12 C24,18.5303867 18.6961326,24 11.9668508,24 Z M11.9668508,22.6740331 C18.0331492,22.6740331 22.6077348,17.8674033 22.6077348,11.9337017 C22.6077348,6.06629834 18.0662983,1.32596685 12.0331492,1.32596685 C5.96685083,1.32596685 1.39226519,6.13259669 1.39226519,12.0662983 C1.39226519,17.9337017 5.93370166,22.6740331 11.9668508,22.6740331 Z M12.1325967,18.4309392 C8.38674033,18.4309392 5.60220994,15.5469613 5.60220994,11.8342541 C5.60220994,8.22099448 8.32044199,5.23756906 12.2320442,5.23756906 C14.6519337,5.23756906 16.0773481,6.03314917 17.2707182,7.19337017 L15.4475138,9.31491713 C14.4861878,8.45303867 13.4585635,7.88950276 12.2320442,7.88950276 C10.1104972,7.88950276 8.58563536,9.64640884 8.58563536,11.8674033 C8.58563536,13.9889503 10.0773481,15.7790055 12.2320442,15.7790055 C13.6574586,15.7790055 14.519337,15.1823204 15.5138122,14.2872928 L17.3701657,16.1436464 C16.0441989,17.5690608 14.5856354,18.4309392 12.1325967,18.4309392 Z" id="©" fill="#FFFFFF"></path>
    </g>
</svg>