<?xml version="1.0" encoding="UTF-8"?>
<svg width="20px" height="12px" viewBox="0 0 20 12" version="1.1" xmlns="http://www.w3.org/2000/svg" xmlns:xlink="http://www.w3.org/1999/xlink">
    <!-- Generator: Sketch 49.1 (51147) - http://www.bohemiancoding.com/sketch -->
    <title>VK</title>
    <desc>Created with Sketch.</desc>
    <defs></defs>
    <g id="Page-1" stroke="none" stroke-width="1" fill="none" fill-rule="evenodd">
        <g id="VK" fill="#4D75A3">
            <path d="M10.9415968,11.3070601 C10.9415968,11.3070601 11.2881146,11.2692667 11.4655994,11.0821432 C11.628059,10.9106901 11.6224245,10.5871416 11.6224245,10.5871416 C11.6224245,10.5871416 11.6008259,9.07632693 12.3154602,8.85325361 C13.0197647,8.63386746 13.9240918,10.3142916 14.8838241,10.9604668 C15.6087882,11.4490158 16.1590848,11.3420881 16.1590848,11.3420881 L18.7236924,11.3070601 C18.7236924,11.3070601 20.0646883,11.2259425 19.428936,10.1907717 C19.376348,10.105967 19.0580023,9.42476376 17.5226184,8.0254857 C15.9139869,6.5607605 16.1299736,6.79766068 18.0663415,4.26365844 C19.2458169,2.72058105 19.7172314,1.7785111 19.569797,1.37568863 C19.4298751,0.990380176 18.5621719,1.09269893 18.5621719,1.09269893 L15.6754624,1.11021295 C15.6754624,1.11021295 15.4613538,1.08163744 15.3026505,1.17473829 C15.1477035,1.26599555 15.0472227,1.47892917 15.0472227,1.47892917 C15.0472227,1.47892917 14.5908334,2.67264794 13.9813752,3.68846113 C12.6957847,5.83070238 12.1821119,5.94408262 11.9717596,5.81134478 C11.4825027,5.50070136 11.6045822,4.56508395 11.6045822,3.90047296 C11.6045822,1.82367884 11.925745,0.958117506 10.9800988,0.734122401 C10.6664485,0.659457366 10.4354366,0.610602467 9.63252944,0.602306352 C8.60236667,0.592166656 7.73090719,0.605993514 7.23695494,0.842893687 C6.90827949,1.00051987 6.65472985,1.35264386 6.80967685,1.37292326 C7.00030861,1.3978116 7.43228206,1.48722529 7.66141581,1.79325975 C7.95722371,2.1887079 7.94689391,3.07547041 7.94689391,3.07547041 C7.94689391,3.07547041 8.11686608,5.52005897 7.54966615,5.82332806 C7.16089005,6.03165272 6.62749675,5.60670728 5.48088896,3.662651 C4.89396851,2.6671172 4.45072618,1.56649927 4.45072618,1.56649927 C4.45072618,1.56649927 4.36527057,1.36093998 4.21220171,1.25032511 C4.02720439,1.11666548 3.76895939,1.07518491 3.76895939,1.07518491 L1.02592798,1.09269893 C1.02592798,1.09269893 0.613675056,1.10376041 0.462484348,1.27982241 C0.32819695,1.43560501 0.452154549,1.7591535 0.452154549,1.7591535 C0.452154549,1.7591535 2.59981386,6.69165476 5.0320122,9.17772389 C7.2623099,11.4563901 9.79404995,11.3070601 9.79404995,11.3070601 L10.9415968,11.3070601 Z" id="Shape"></path>
        </g>
    </g>
</svg>